<?xml version="1.0" encoding="UTF-8"?>
<svg xmlns="http://www.w3.org/2000/svg" viewBox="0 0 139.23 138.28">
  <defs>
    <style>.a{fill:#fff;}</style>
  </defs>
  <title>ga-white</title>
  <path class="a" d="M152.74,85.5a5,5,0,0,1,5-5,68.63,68.63,0,0,0-1.07-8.16h0a5,5,0,1,1-2.58-9.56h0a68.16,68.16,0,0,0-3.17-7.61h0a5,5,0,0,1-6.81-1.81,4.93,4.93,0,0,1,1.83-6.76h0a69,69,0,0,0-5-6.53h0a5,5,0,0,1-7,0,4.93,4.93,0,0,1,0-7h0a69.84,69.84,0,0,0-6.57-5h0a5,5,0,0,1-6.81,1.81,4.93,4.93,0,0,1-1.83-6.77h0A69.42,69.42,0,0,0,110.95,20v0a5,5,0,0,1-9.63-2.56h0a70,70,0,0,0-8.22-1.07,5,5,0,0,1-10,0,69.93,69.93,0,0,0-8.22,1.07h0A5,5,0,0,1,65.27,20v0a69.72,69.72,0,0,0-7.66,3.15h0a4.93,4.93,0,0,1-1.82,6.77A5,5,0,0,1,49,28.09h0a70.05,70.05,0,0,0-6.58,5,4.92,4.92,0,0,1,0,7,5,5,0,0,1-7,0h0a69.47,69.47,0,0,0-5,6.53h0a4.93,4.93,0,0,1,1.83,6.76,5,5,0,0,1-6.81,1.81h0a68.83,68.83,0,0,0-3.17,7.61h0a5,5,0,1,1-2.58,9.56h0a68.37,68.37,0,0,0-1.07,8.16,5,5,0,1,1,0,9.9,68.8,68.8,0,0,0,1.07,8.16h0a5,5,0,1,1,2.58,9.56h0a68.73,68.73,0,0,0,3.17,7.61h0a5,5,0,0,1,6.81,1.81,4.93,4.93,0,0,1-1.82,6.76h0a69,69,0,0,0,5,6.53,5,5,0,0,1,7,0,4.92,4.92,0,0,1,0,7h0a69.87,69.87,0,0,0,6.57,5h0a5,5,0,0,1,6.81-1.82,4.93,4.93,0,0,1,1.83,6.76h0A69.27,69.27,0,0,0,65.27,151v0a5,5,0,0,1,9.63,2.56h0a70.16,70.16,0,0,0,8.22,1.07,5,5,0,0,1,10,0h0a70.14,70.14,0,0,0,8.22-1.07h0a5,5,0,0,1,9.63-2.57v0a69.56,69.56,0,0,0,7.66-3.15h0a4.93,4.93,0,0,1,1.82-6.76,5,5,0,0,1,6.81,1.81h0a69.46,69.46,0,0,0,6.57-5h0a4.92,4.92,0,0,1,0-7,5,5,0,0,1,7.05,0h0a69.87,69.87,0,0,0,5-6.53h0a4.93,4.93,0,0,1-1.82-6.76,5,5,0,0,1,6.81-1.82h0a68.39,68.39,0,0,0,3.18-7.61h0a5,5,0,1,1,2.58-9.57h0a69,69,0,0,0,1.07-8.16A5,5,0,0,1,152.74,85.5ZM83.43,71.86H72.32V59.75a6.67,6.67,0,0,0-.16-1.34A4.37,4.37,0,0,0,71.6,57a3.54,3.54,0,0,0-1.08-1.09,3.23,3.23,0,0,0-1.8-.45H68.56a3.22,3.22,0,0,0-1.8.45A3.52,3.52,0,0,0,65.69,57a4.43,4.43,0,0,0-.56,1.42A6.8,6.8,0,0,0,65,59.75v52.54a4.58,4.58,0,0,0,.56,2.19q0.56,1.05,2.63,1.05a4,4,0,0,0,2.63-.85,2.75,2.75,0,0,0,1-2.23V97.28H68.07V87.63H82.93v24.25q0,7-3.76,10.59t-10.62,3.61q-7.68,0-11.19-3.57T53.86,111.8V59.75q0-6.73,3.8-10.79t11-4.06h0q7.19,0,11,4.06t3.8,10.79V71.86Zm26.19,53.73-2.53-19.49h-6.7l-2.53,19.49H86.09l10.78-80.2h13.56l10.86,80.2H109.61Z" transform="translate(-18.49 -16.35)"></path>
  <ellipse class="a" cx="85.2" cy="75.46" rx="4.88" ry="4.84"></ellipse>
</svg>
